<?xml version="1.0" encoding="UTF-8"?><!DOCTYPE svg  PUBLIC '-//W3C//DTD SVG 1.1//EN'  'http://www.w3.org/Graphics/SVG/1.1/DTD/svg11.dtd'><svg enable-background="new 0 0 1024 1024" version="1.1" viewBox="0 0 1024 1024" xml:space="preserve" xmlns="http://www.w3.org/2000/svg"><path d="m809.33 413.44v271.62c0 106.28-81.668 192.43-182.42 192.43h-367.83c-100.74 0-190.35-58.1-190.35-146.24 0-12.084 1.863-17.474 12.206-38.146 9.026-18.039 21.377-24.706 21.377-48.415 0-27.452-8.174-231.25-8.174-231.25s29.51-182.65 350.36-182.65c320.84-2e-3 364.83 182.65 364.83 182.65z" fill="#FFE2DB"/><g fill="#333"><path d="m689.13 558.82c0 47.43-40.668 85.882-101.99 85.882-61.319 0-101.99-38.452-101.99-85.882 0 0-1.914-14.723 9.039-14.723s9.041 11.146 9.041 14.723c0 3.571 6.588 50.954 83.907 50.954 77.316 0 83.906-47.816 83.906-50.954 0-3.139 0.855-14.723 9.041-14.723 8.186 1e-3 9.038 14.723 9.038 14.723z"/><path d="m345.18 558.82c0 47.43-40.668 85.882-101.99 85.882s-101.99-38.452-101.99-85.882c0 0-1.914-14.725 9.039-14.725s9.041 11.148 9.041 14.725c0 3.571 6.588 50.954 83.907 50.954 77.316 0 83.907-47.818 83.907-50.954 0-3.139 0.854-14.725 9.039-14.725 8.187 2e-3 9.04 14.725 9.04 14.725z"/><path d="m416.36 695.3c0 47.94-34.207 86.808-85.781 86.808-51.576 0-85.781-38.866-85.781-86.808 0 0-1.609-14.882 7.603-14.882 9.213 0 7.604 11.269 7.604 14.882 0 3.614 5.542 51.505 70.574 51.505s70.574-48.336 70.574-51.505c0-3.173 0.72-14.882 7.604-14.882s7.603 14.882 7.603 14.882z"/><path d="m401.15 695.3c0 47.94 34.208 86.808 85.782 86.808 51.576 0 85.781-38.866 85.781-86.808 0 0 1.609-14.882-7.602-14.882-9.215 0-7.605 11.269-7.605 14.882 0 3.614-5.543 51.505-70.573 51.505-65.034 0-70.575-48.336-70.575-51.505 0-3.173-0.72-14.882-7.604-14.882s-7.604 14.882-7.604 14.882z"/></g><g fill="#FFC3B9"><path d="m203.16 680.41c0 34.247-38.281 62.013-85.503 62.013s-85.503-27.766-85.503-62.013c0-34.245 38.281-62.009 85.503-62.009s85.503 27.764 85.503 62.009z"/><path d="m800.25 680.41c0 34.247-38.281 62.013-85.502 62.013-47.225 0-85.504-27.766-85.504-62.013 0-34.245 38.279-62.009 85.504-62.009 47.221 0 85.502 27.764 85.502 62.009z"/></g><path d="m415.12 40.747c-30.419 8.869-74.157 25.291-111.91 38.862-26.871 9.661-36.291 34.741-36.291 34.741s-19.761-13.327-68.214 1.708c-47.967 14.882-92.298 47.376-110.64 62.902-12.966 10.973-42.414 48.569-54.087 74.01-9.751 21.252-16.85 43.248-21.976 76.327-3.41 22-1.691 72.245 0.056 95.214 1.748 22.97 6.65 57.128 27.552 96.214 12.403 23.197 63.656 86.195 63.656 86.195s-4.279-21.638-1.887-71.661c2.063-43.139 1.887-69.657 16.275-99.224 6.508-13.374 21.708-37.533 37.865-55.625 16.158-18.091 47.638-29.944 47.638-29.944s8.72 41.699 21.376 65.54c12.656 23.84 17.478 34.654 31.207 53.711 34.216 47.5 91.696 87.629 91.696 87.629s-20.886-28.48-27.552-45.346-14.251-60.43-14.251-60.43 8.512 30.803 40.854 74.167c18.934 25.385 62.399 62.752 70.78 68.657 30.803 21.709 52.019 30.654 52.019 30.654-6.456-31.633-8.239-53.205-4.989-67.703 3.432-15.309 12.534-42.938 20.902-62.8 15.201-36.081 26.737-56.909 51.305-94.092 21.85-33.075 17.934-63.414 17.934-63.414s71.375 86.465 130.28 118.54c35.484 19.319 87.779 76.848 97.254 105.01 19.133 56.856 4.687 122.78-2.244 157.58-7.545 37.893-14.725 65.226-85.508 127.29-32.57 28.559-89.358 41.528-114.01 70.159-30.719 35.671-25.652 84.187-25.652 84.187s43.211-67.04 86.457-68.155c77.906-2.002 125.23 13.063 188.12-7.013 72.207-23.052 106.94-107.41 133.96-167.38 27.553-61.138 40.59-82.269 48.408-188.82 7.9-107.68-2.807-198.05-37.959-277.23-34.627-77.996-80.502-139.26-145.36-174.39-61.561-33.339-134.81-79.172-223.26-89.29-88.449-10.117-162.67 5.304-189.8 13.216z" fill="#FA9BA2"/><g fill="#9E646B"><path d="m700.86 447.56c-25.062-15.69-60.008-32.302-90.51-50.506 22.875 22.15 49.709 45.1 74.358 58.521 35.484 19.318 87.779 76.848 97.254 105.01-9.473-28.159-46.764-91.522-81.102-113.02z"/><path d="m973.54 291.21c-34.627-77.996-80.502-139.26-145.36-174.39-61.561-33.339-134.81-79.172-223.26-89.29 88.447 10.118 162.34 62.792 215.65 109.33 56.014 48.905 103.29 125.68 136.46 204.37 29.168 69.205 29.461 132.5 13.178 239.12-15.279 100.05-26.73 133.27-48.453 180.4-27.522 59.719-64.656 96.597-121.51 127.79-58.291 31.98-81.334 41.09-159.24 43.092 77.906-2.002 125.23 13.063 188.12-7.013 72.207-23.052 106.94-107.41 133.96-167.38 27.553-61.138 40.59-82.269 48.408-188.82 7.9-107.68-2.807-198.05-37.959-277.23z"/><path d="m289.48 469.72c3.439 16.066 48.262 74.186 56.542 85.673-4.804-6.708-20.522-29.174-26.142-43.391-5.076-12.841-10.681-41.143-13.067-53.927-3.875-35.504 0.191-138.61 0.191-138.61-12.358 52.118-29.878 92.523-17.524 150.26z"/><path d="m197.32 259.14s-65.801 48.467-79.672 68.561c-25.315 36.674-32.284 54.601-35.647 84.28-3.919 34.577 0 71.785 7.482 115.76 7.466 43.884 12.859 74.06 13.667 78.569-0.651-3.811-3.939-25.828-1.778-71.054 2.063-43.139 1.887-69.657 16.275-99.224 6.508-13.374 21.708-37.533 37.865-55.625 16.158-18.091 47.638-29.944 47.638-29.944s0.371 1.767 1.06 4.747c-8.446-49.596-6.89-96.071-6.89-96.071z"/><path d="m554.47 337.34c-0.02-0.192-0.033-0.302-0.033-0.302s0.019 0.023 0.041 0.051c1.3-43.525 7.142-82.515-6.334-117.71-27.012-70.562-30.809-76.587-30.809-76.587s16.518 107.57-5.334 140.65c-24.567 37.183-52.337 79.858-61.957 118.02-6.89 27.327-10.991 45.149-10.991 110.54 0 46.238 23.775 81.417 30.23 113.05-6.456-31.633-8.239-53.205-4.989-67.703 3.432-15.309 12.534-42.938 20.902-62.8 15.201-36.081 26.737-56.909 51.305-94.092 12.455-18.851 16.533-36.803 17.74-48.767 2e-3 -4.837 0.09-9.616 0.229-14.345z"/></g><g fill="#F9D7DB"><path d="m243.13 281.19c9.887-36.833 12.737-42.846 28.295-77.173 9.072-20.016-21.989-23.878-40.854-10.021-12.82 9.417-40.853 52.117-39.546 86.819 1.017 27.043 12.128 69.654 12.128 69.654s8.72 41.699 21.377 65.54c12.655 23.84 17.477 34.654 31.206 53.711-13.729-19.057-20.176-55.729-23.264-104.34-1.62-25.488 5.673-65.619 10.658-84.189z"/><path d="m347.43 557.35s-20.886-28.48-27.552-45.347c5.307 17.395 27.552 45.347 27.552 45.347z"/><path d="m27.352 349.05c7.616-25.382 14.75-46.216 26.033-69.869 11.585-24.288 43.616-60.32 65.053-76.209 22.989-17.039 58.618-41.588 90.286-53.583 47.535-18.005 64.334 31.255 64.334 31.255s-0.962-41.946 28.772-59.818c43.354-26.059 100.11-49.906 131.11-56.126 33.817-6.787 98.248-19.021 186.22-5.012 95.592 15.222 147.46 23.79 209.02 57.129-61.561-33.339-134.81-79.172-223.26-89.29-88.449-10.117-162.67 5.304-189.8 13.216-30.419 8.869-74.156 25.291-111.91 38.862-26.87 9.661-36.292 34.741-36.292 34.741s-19.76-13.327-68.213 1.708c-47.967 14.882-92.298 47.376-110.64 62.902-12.966 10.973-42.414 48.569-54.087 74.01-9.751 21.252-16.85 43.248-21.976 76.327-3.41 22-1.691 72.245 0.056 95.214 1.748 22.969 6.65 57.128 27.552 96.214-20.902-39.086-21.529-65.229-23.277-88.197-1.749-22.967 4.642-62.221 11.02-83.474z"/><path d="m358.84 512c-13.651-33.179-26.824-79.956-28.311-89.701-10.643-69.699-14.81-191.5-14.81-191.5s-30.308 134.58-10.084 220.78c0 0 8.512 30.803 40.854 74.167 18.935 25.385 62.4 62.752 70.781 68.658-18.66-15.48-48.369-57.94-58.43-82.396z"/><path d="m749.32 881.79c47.739-36.831 68.594-61.403 74.104-99.683 17.103-118.77 8.552-128.83-34.203-219.78-11.021-23.449-55.69-72.893-90.455-97.784 33.896 24.354 74.918 71.427 83.201 96.048 19.133 56.856 4.687 122.78-2.244 157.58-7.543 37.892-14.723 65.225-85.506 127.29-32.57 28.559-89.358 41.528-114.01 70.159-30.719 35.671-25.652 84.187-25.652 84.187s1.802-22.954 32.521-58.63c24.651-28.629 128.06-33.009 162.24-59.384z"/></g>	</svg>