<?xml version="1.0" encoding="utf-8"?>
<!-- Generator: Adobe Illustrator 16.0.0, SVG Export Plug-In . SVG Version: 6.00 Build 0)  -->
<!DOCTYPE svg PUBLIC "-//W3C//DTD SVG 1.1 Tiny//EN" "http://www.w3.org/Graphics/SVG/1.1/DTD/svg11-tiny.dtd">
<svg version="1.1" baseProfile="tiny" id="Layer_1" xmlns="http://www.w3.org/2000/svg" xmlns:xlink="http://www.w3.org/1999/xlink"
	 x="0px" y="0px" width="1024px" height="1024px" viewBox="0 0 1024 1024" xml:space="preserve">
<g id="UwU_head">
	<g id="UwU_face">
		<g>
			<path fill="#FFE2DB" d="M809.326,413.445v271.617c0,106.279-81.668,192.434-182.416,192.434H259.076
				c-100.745,0-190.346-58.1-190.346-146.236c0-12.084,1.863-17.474,12.206-38.147c9.026-18.039,21.377-24.706,21.377-48.415
				c0-27.452-8.174-231.252-8.174-231.252s29.51-182.652,350.355-182.652C765.338,230.793,809.326,413.445,809.326,413.445z"/>
		</g>
		<path display="none" fill="#CEB8A3" d="M444.494,230.793c-9.264,0-18.275,0.159-27.06,0.455
			c296.243,9.947,337.737,182.197,337.737,182.197v271.617c0,106.279-81.67,192.434-182.416,192.434h54.154
			c100.748,0,182.416-86.154,182.416-192.434V413.445C809.326,413.445,765.338,230.793,444.494,230.793z"/>
		<g id="UwU">
			<path fill="#333333" d="M689.127,558.815c0,47.43-40.668,85.882-101.986,85.882c-61.32,0-101.987-38.452-101.987-85.882
				c0,0-1.914-14.722,9.039-14.722c10.954,0,9.041,11.146,9.041,14.722c0,3.572,6.588,50.955,83.908,50.955
				c77.316,0,83.906-47.817,83.906-50.955s0.855-14.722,9.041-14.722S689.127,558.815,689.127,558.815z"/>
			<path fill="#333333" d="M345.184,558.815c0,47.43-40.669,85.882-101.987,85.882c-61.319,0-101.986-38.452-101.986-85.882
				c0,0-1.914-14.724,9.039-14.724s9.041,11.148,9.041,14.724c0,3.572,6.588,50.955,83.907,50.955
				c77.317,0,83.907-47.819,83.907-50.955c0-3.138,0.854-14.724,9.04-14.724C344.331,544.092,345.184,558.815,345.184,558.815z"/>
			<g>
				<path fill="#333333" d="M416.359,695.296c0,47.94-34.207,86.808-85.781,86.808c-51.576,0-85.781-38.867-85.781-86.808
					c0,0-1.609-14.882,7.603-14.882c9.213,0,7.604,11.269,7.604,14.882c0,3.614,5.542,51.505,70.574,51.505
					c65.032,0,70.574-48.336,70.574-51.505c0-3.173,0.72-14.882,7.605-14.882S416.359,695.296,416.359,695.296z"/>
				<path fill="#333333" d="M401.152,695.296c0,47.94,34.208,86.808,85.783,86.808c51.576,0,85.781-38.867,85.781-86.808
					c0,0,1.609-14.882-7.602-14.882c-9.215,0-7.605,11.269-7.605,14.882c0,3.614-5.543,51.505-70.574,51.505
					c-65.034,0-70.575-48.336-70.575-51.505c0-3.173-0.719-14.882-7.604-14.882S401.152,695.296,401.152,695.296z"/>
			</g>
		</g>
		<path id="outline_1_" display="none" fill="none" stroke="#4D4D4D" stroke-width="13" stroke-miterlimit="10" d="M809.326,413.445
			v271.617c0,106.279-81.668,192.434-182.416,192.434H259.076c-100.745,0-190.346-58.1-190.346-146.236
			c0-12.084,1.863-17.474,12.206-38.147c9.026-18.039,21.377-24.706,21.377-48.415c0-27.452-8.174-231.252-8.174-231.252
			s29.51-182.652,350.355-182.652C765.338,230.793,809.326,413.445,809.326,413.445z"/>
		<g id="blush">
			<path fill="#FFC3B9" d="M203.156,680.414c0,34.247-38.281,62.013-85.503,62.013c-47.222,0-85.503-27.766-85.503-62.013
				c0-34.245,38.281-62.009,85.503-62.009C164.875,618.405,203.156,646.169,203.156,680.414z"/>
			<path fill="#FFC3B9" d="M800.252,680.414c0,34.247-38.281,62.013-85.502,62.013c-47.225,0-85.504-27.766-85.504-62.013
				c0-34.245,38.279-62.009,85.504-62.009C761.971,618.405,800.252,646.169,800.252,680.414z"/>
		</g>
	</g>
	<g id="UwU_hair">
		<path id="base" fill="#FA9BA2" d="M415.117,40.747c-30.419,8.869-74.157,25.291-111.906,38.862
			c-26.871,9.661-36.291,34.741-36.291,34.741s-19.761-13.327-68.214,1.708c-47.967,14.882-92.298,47.376-110.643,62.902
			c-12.966,10.973-42.414,48.569-54.087,74.01c-9.751,21.252-16.85,43.248-21.976,76.327c-3.41,22-1.691,72.245,0.056,95.214
			c1.748,22.969,6.65,57.128,27.552,96.214c12.403,23.197,63.656,86.195,63.656,86.195s-4.279-21.638-1.887-71.661
			c2.063-43.139,1.887-69.657,16.275-99.224c6.508-13.374,21.708-37.533,37.865-55.625c16.158-18.091,47.638-29.944,47.638-29.944
			s8.72,41.699,21.376,65.54c12.656,23.84,17.478,34.654,31.207,53.711c34.216,47.5,91.696,87.629,91.696,87.629
			S326.548,528.865,319.882,512c-6.666-16.866-14.251-60.43-14.251-60.43s8.512,30.803,40.854,74.167
			c18.934,25.385,62.4,62.752,70.781,68.658c30.802,21.708,52.018,30.654,52.018,30.654c-6.456-31.633-8.239-53.205-4.989-67.703
			c3.432-15.309,12.534-42.938,20.902-62.8c15.201-36.081,26.738-56.909,51.305-94.092c21.85-33.075,17.934-63.414,17.934-63.414
			s71.375,86.465,130.279,118.537c35.484,19.319,87.779,76.848,97.254,105.007c19.133,56.856,4.686,122.775-2.244,157.581
			C772.18,756.057,765,783.39,694.217,845.454c-32.57,28.559-89.359,41.528-114.01,70.159
			c-30.719,35.671-25.652,84.187-25.652,84.187s43.211-67.04,86.457-68.155c77.906-2.002,125.23,13.063,188.115-7.013
			c72.207-23.052,106.939-107.409,133.963-167.376c27.553-61.138,40.59-82.269,48.408-188.816
			c7.9-107.676-2.807-198.05-37.959-277.228c-34.627-77.996-80.502-139.265-145.361-174.391
			c-61.561-33.339-134.809-79.172-223.256-89.29C516.473,17.414,442.255,32.835,415.117,40.747z"/>
		<g id="shadows" display="none">
			<path display="inline" fill="#BD75BF" d="M700.865,447.563c-25.061-15.691-60.008-32.302-90.51-50.506
				c22.875,22.15,49.709,45.099,74.359,58.521c35.484,19.319,87.779,76.848,97.254,105.007
				C772.494,532.426,735.203,469.062,700.865,447.563z"/>
			<path display="inline" fill="#BD75BF" d="M973.539,291.212c-34.627-77.996-80.502-139.265-145.361-174.391
				c-61.561-33.339-134.809-79.172-223.256-89.29c88.447,10.118,162.344,62.792,215.654,109.334
				c56.014,48.905,103.289,125.676,136.459,204.374c29.168,69.205,29.461,132.499,13.178,239.122
				c-15.279,100.054-26.73,133.271-48.453,180.404c-27.523,59.718-64.656,96.596-121.508,127.788
				c-58.291,31.98-81.334,41.09-159.24,43.092c77.906-2.002,125.23,13.063,188.115-7.013
				c72.207-23.052,106.939-107.409,133.963-167.376c27.553-61.138,40.59-82.269,48.408-188.816
				C1019.398,460.763,1008.691,370.389,973.539,291.212z"/>
			<path display="inline" fill="#BD75BF" d="M289.482,469.717c3.439,16.066,48.262,74.185,56.542,85.673
				c-4.803-6.708-20.522-29.174-26.141-43.391c-5.076-12.841-10.681-41.143-13.068-53.927
				c-3.874-35.504,0.192-138.613,0.192-138.613C294.648,371.577,277.128,411.982,289.482,469.717z"/>
			<path display="inline" fill="#BD75BF" d="M197.325,259.141c0,0-65.801,48.467-79.672,68.561
				c-25.315,36.674-32.284,54.601-35.647,84.28c-3.919,34.578,0,71.786,7.482,115.761c7.466,43.884,12.859,74.06,13.667,78.57
				c-0.651-3.811-3.939-25.829-1.778-71.054c2.063-43.139,1.887-69.657,16.275-99.224c6.508-13.374,21.708-37.533,37.865-55.625
				c16.158-18.091,47.638-29.944,47.638-29.944s0.371,1.767,1.06,4.747C195.769,305.616,197.325,259.141,197.325,259.141z"/>
			<path display="inline" fill="#BD75BF" d="M554.469,337.344c-0.02-0.192-0.033-0.302-0.033-0.302s0.018,0.023,0.041,0.051
				c1.299-43.525,7.141-82.515-6.334-117.709c-27.012-70.562-30.809-76.587-30.809-76.587S533.852,250.37,512,283.444
				c-24.567,37.183-52.337,79.858-61.957,118.015c-6.89,27.327-10.991,45.149-10.991,110.542c0,46.238,23.775,81.417,30.23,113.05
				c-6.456-31.633-8.239-53.205-4.989-67.703c3.432-15.309,12.534-42.938,20.902-62.8c15.201-36.081,26.738-56.909,51.305-94.092
				c12.455-18.851,16.533-36.803,17.74-48.767C554.242,346.852,554.33,342.073,554.469,337.344z"/>
		</g>
		<g id="highlights" display="none">
			<path display="inline" fill="#FFE7FF" d="M243.133,281.188c9.887-36.833,12.737-42.846,28.295-77.173
				c9.072-20.016-21.989-23.878-40.854-10.021c-12.82,9.417-40.853,52.117-39.546,86.819c1.017,27.043,12.128,69.654,12.128,69.654
				s8.72,41.699,21.377,65.54c12.655,23.84,17.477,34.654,31.206,53.711c-13.729-19.057-20.176-55.73-23.264-104.341
				C230.855,339.889,238.148,299.758,243.133,281.188z"/>
			<path display="inline" fill="#FFE7FF" d="M347.434,557.347c0,0-20.886-28.481-27.552-45.347
				C325.189,529.395,347.434,557.347,347.434,557.347z"/>
			<path display="inline" fill="#FFE7FF" d="M27.352,349.053c7.616-25.382,14.75-46.216,26.033-69.869
				c11.585-24.288,43.616-60.32,65.053-76.209c22.989-17.039,58.618-41.588,90.286-53.583
				c47.535-18.005,64.334,31.255,64.334,31.255s-0.962-41.946,28.772-59.818c43.354-26.059,100.108-49.906,131.112-56.126
				c33.818-6.787,98.248-19.021,186.217-5.012c95.592,15.222,147.459,23.79,209.02,57.129
				c-61.561-33.339-134.809-79.172-223.256-89.29c-88.449-10.117-162.667,5.304-189.805,13.216
				c-30.419,8.869-74.156,25.291-111.906,38.862c-26.87,9.661-36.292,34.741-36.292,34.741s-19.76-13.327-68.213,1.708
				c-47.967,14.882-92.298,47.376-110.643,62.902c-12.966,10.973-42.414,48.569-54.087,74.01
				c-9.751,21.252-16.85,43.248-21.976,76.327c-3.41,22-1.691,72.245,0.056,95.214c1.748,22.969,6.65,57.128,27.552,96.214
				c-20.902-39.086-21.529-65.229-23.277-88.198C14.583,409.56,20.974,370.306,27.352,349.053z"/>
			<path display="inline" fill="#FFE7FF" d="M358.835,512c-13.651-33.179-26.824-79.956-28.311-89.701
				c-10.642-69.699-14.809-191.505-14.809-191.505s-30.308,134.584-10.084,220.777c0,0,8.512,30.803,40.853,74.167
				c18.935,25.385,62.401,62.752,70.782,68.658C398.606,578.916,368.897,536.456,358.835,512z"/>
			<path display="inline" fill="#FFE7FF" d="M749.32,881.786c47.74-36.831,68.594-61.403,74.105-99.683
				c17.102-118.766,8.551-128.831-34.203-219.783c-11.021-23.449-55.691-72.892-90.455-97.784
				c33.896,24.354,74.918,71.427,83.201,96.048c19.133,56.856,4.686,122.775-2.244,157.581
				C772.18,756.057,765,783.39,694.217,845.454c-32.57,28.559-89.359,41.528-114.01,70.159
				c-30.719,35.671-25.652,84.187-25.652,84.187s1.801-22.954,32.521-58.63C611.727,912.541,715.133,908.161,749.32,881.786z"/>
		</g>
		<path id="outline" display="none" fill="none" stroke="#4D4D4D" stroke-width="13" stroke-miterlimit="10" d="M415.117,40.747
			c-30.419,8.869-74.157,25.291-111.906,38.862c-26.871,9.661-36.291,34.741-36.291,34.741s-19.761-13.327-68.214,1.708
			c-47.967,14.882-92.298,47.376-110.643,62.902c-12.966,10.973-42.414,48.569-54.087,74.01
			c-9.751,21.252-16.85,43.248-21.976,76.327c-3.41,22-1.691,72.245,0.056,95.214c1.748,22.969,6.65,57.128,27.552,96.214
			c12.403,23.197,63.656,86.195,63.656,86.195s-4.279-21.638-1.887-71.661c2.063-43.139,1.887-69.657,16.275-99.224
			c6.508-13.374,21.708-37.533,37.865-55.625c16.158-18.091,47.638-29.944,47.638-29.944s8.72,41.699,21.376,65.54
			c12.656,23.84,17.478,34.654,31.207,53.711c34.216,47.5,91.696,87.629,91.696,87.629S326.548,528.865,319.882,512
			c-6.666-16.866-14.251-60.43-14.251-60.43s8.512,30.803,40.854,74.167c18.934,25.385,62.4,62.752,70.781,68.658
			c30.802,21.708,52.018,30.654,52.018,30.654c-6.456-31.633-8.239-53.205-4.989-67.703c3.432-15.309,12.534-42.938,20.902-62.8
			c15.201-36.081,26.738-56.909,51.305-94.092c21.85-33.075,17.934-63.414,17.934-63.414s71.375,86.465,130.279,118.537
			c35.484,19.319,87.779,76.848,97.254,105.007c19.133,56.856,4.686,122.775-2.244,157.581
			C772.18,756.057,765,783.39,694.217,845.454c-32.57,28.559-89.359,41.528-114.01,70.159
			c-30.719,35.671-25.652,84.187-25.652,84.187s43.211-67.04,86.457-68.155c77.906-2.002,125.23,13.063,188.115-7.013
			c72.207-23.052,106.939-107.409,133.963-167.376c27.553-61.138,40.59-82.269,48.408-188.816
			c7.9-107.676-2.807-198.05-37.959-277.228c-34.627-77.996-80.502-139.265-145.361-174.391
			c-61.561-33.339-134.809-79.172-223.256-89.29C516.473,17.414,442.255,32.835,415.117,40.747z"/>
	</g>
</g>
</svg>
