<?xml version="1.0" encoding="UTF-8"?><!DOCTYPE svg  PUBLIC '-//W3C//DTD SVG 1.1 Tiny//EN'  'http://www.w3.org/Graphics/SVG/1.1/DTD/svg11-tiny.dtd'><svg baseProfile="tiny" version="1.1" viewBox="0 0 1024 1024" xml:space="preserve" xmlns="http://www.w3.org/2000/svg"><path d="m809.33 413.44v271.62c0 106.28-81.668 192.43-182.42 192.43h-367.83c-100.74 0-190.35-58.1-190.35-146.24 0-12.084 1.863-17.474 12.206-38.147 9.026-18.039 21.377-24.706 21.377-48.415 0-27.452-8.174-231.25-8.174-231.25s29.51-182.65 350.36-182.65c320.84-1e-3 364.83 182.65 364.83 182.65z" fill="#FFE2DB"/><g fill="#333"><path d="m689.13 558.82c0 47.43-40.668 85.882-101.99 85.882-61.32 0-101.99-38.452-101.99-85.882 0 0-1.914-14.722 9.039-14.722 10.954 0 9.041 11.146 9.041 14.722 0 3.572 6.588 50.955 83.908 50.955 77.316 0 83.906-47.817 83.906-50.955s0.855-14.722 9.041-14.722 9.038 14.722 9.038 14.722z"/><path d="m345.18 558.82c0 47.43-40.669 85.882-101.99 85.882-61.319 0-101.99-38.452-101.99-85.882 0 0-1.914-14.724 9.039-14.724s9.041 11.148 9.041 14.724c0 3.572 6.588 50.955 83.907 50.955 77.317 0 83.907-47.819 83.907-50.955 0-3.138 0.854-14.724 9.04-14.724 8.186 1e-3 9.039 14.724 9.039 14.724z"/><path d="m416.36 695.3c0 47.94-34.207 86.808-85.781 86.808-51.576 0-85.781-38.867-85.781-86.808 0 0-1.609-14.882 7.603-14.882 9.213 0 7.604 11.269 7.604 14.882 0 3.614 5.542 51.505 70.574 51.505s70.574-48.336 70.574-51.505c0-3.173 0.72-14.882 7.605-14.882s7.602 14.882 7.602 14.882z"/><path d="m401.15 695.3c0 47.94 34.208 86.808 85.783 86.808 51.576 0 85.781-38.867 85.781-86.808 0 0 1.609-14.882-7.602-14.882-9.215 0-7.605 11.269-7.605 14.882 0 3.614-5.543 51.505-70.574 51.505-65.034 0-70.575-48.336-70.575-51.505 0-3.173-0.719-14.882-7.604-14.882s-7.604 14.882-7.604 14.882z"/></g><g fill="#FFC3B9"><path d="m203.16 680.41c0 34.247-38.281 62.013-85.503 62.013s-85.503-27.766-85.503-62.013c0-34.245 38.281-62.009 85.503-62.009s85.503 27.764 85.503 62.009z"/><path d="m800.25 680.41c0 34.247-38.281 62.013-85.502 62.013-47.225 0-85.504-27.766-85.504-62.013 0-34.245 38.279-62.009 85.504-62.009 47.221 0 85.502 27.764 85.502 62.009z"/></g><path d="m415.12 40.747c-30.419 8.869-74.157 25.291-111.91 38.862-26.871 9.661-36.291 34.741-36.291 34.741s-19.761-13.327-68.214 1.708c-47.967 14.882-92.298 47.376-110.64 62.902-12.966 10.973-42.414 48.569-54.087 74.01-9.751 21.252-16.85 43.248-21.976 76.327-3.41 22-1.691 72.245 0.056 95.214 1.748 22.969 6.65 57.128 27.552 96.214 12.403 23.197 63.656 86.195 63.656 86.195s-4.279-21.638-1.887-71.661c2.063-43.139 1.887-69.657 16.275-99.224 6.508-13.374 21.708-37.533 37.865-55.625 16.158-18.091 47.638-29.944 47.638-29.944s8.72 41.699 21.376 65.54c12.656 23.84 17.478 34.654 31.207 53.711 34.216 47.5 91.696 87.629 91.696 87.629s-20.886-28.481-27.552-45.346c-6.666-16.866-14.251-60.43-14.251-60.43s8.512 30.803 40.854 74.167c18.934 25.385 62.4 62.752 70.781 68.658 30.802 21.708 52.018 30.654 52.018 30.654-6.456-31.633-8.239-53.205-4.989-67.703 3.432-15.309 12.534-42.938 20.902-62.8 15.201-36.081 26.738-56.909 51.305-94.092 21.85-33.075 17.934-63.414 17.934-63.414s71.375 86.465 130.28 118.54c35.484 19.319 87.779 76.848 97.254 105.01 19.133 56.856 4.686 122.78-2.244 157.58-7.545 37.892-14.725 65.225-85.508 127.29-32.57 28.559-89.359 41.528-114.01 70.159-30.719 35.671-25.652 84.187-25.652 84.187s43.211-67.04 86.457-68.155c77.906-2.002 125.23 13.063 188.12-7.013 72.207-23.052 106.94-107.41 133.96-167.38 27.553-61.138 40.59-82.269 48.408-188.82 7.9-107.68-2.807-198.05-37.959-277.23-34.627-77.996-80.502-139.26-145.36-174.39-61.561-33.339-134.81-79.172-223.26-89.29-88.449-10.117-162.67 5.304-189.8 13.216z" fill="#FA9BA2"/></svg>
